<!DOCTYPE svg PUBLIC "-//W3C//DTD SVG 1.1//EN" "http://www.w3.org/Graphics/SVG/1.1/DTD/svg11.dtd">
<!-- Uploaded to: SVG Repo, www.svgrepo.com, Transformed by: SVG Repo Mixer Tools -->
<svg fill="#8a2be2" height="800px" width="800px" version="1.1" id="Layer_1" xmlns="http://www.w3.org/2000/svg" xmlns:xlink="http://www.w3.org/1999/xlink" viewBox="0 0 210.234 210.234" xml:space="preserve">
<g id="SVGRepo_bgCarrier" stroke-width="0"/>
<g id="SVGRepo_tracerCarrier" stroke-linecap="round" stroke-linejoin="round"/>
<g id="SVGRepo_iconCarrier"> <g> <g> <g> <path d="M206.267,25.784H3.967C1.774,25.784,0,27.56,0,29.75v150.733c0,2.19,1.774,3.967,3.967,3.967h202.3 c2.192,0,3.967-1.776,3.967-3.967V29.75C210.233,27.56,208.459,25.784,206.267,25.784z M202.3,176.517H7.933v-142.8H202.3 V176.517z"/> <path d="M23.8,164.618h134.851c0.004,0,0.008,0.002,0.012,0.002c0.005,0,0.009-0.002,0.013-0.002h27.757 c2.192,0,3.967-1.776,3.967-3.967V49.584c0-2.19-1.774-3.967-3.967-3.967H23.8c-2.192,0-3.967,1.776-3.967,3.967V160.65 C19.833,162.84,21.608,164.618,23.8,164.618z M27.767,156.685v-53.068c3.738-1.672,11.925-4.566,17.792-1.048 c2.371,1.422,4.157,7.966,5.737,13.742c3.401,12.448,8.061,29.496,25.404,32.386c13.008,2.167,25.345,0.397,36.231-1.164 c9.708-1.393,18.094-2.595,24.943-0.883c7.639,1.909,12.044,6.432,14.447,10.035H27.767z M27.766,53.55h154.701v103.133h-21.098 c-2.219-4.843-8.167-14.381-21.574-17.732c-8.363-2.086-17.896-0.719-27.988,0.726c-10.823,1.553-22.014,3.153-33.806,1.193 c-12.33-2.055-15.902-15.123-19.055-26.653c-2.255-8.259-4.203-15.392-9.305-18.453c-7.38-4.428-16.175-2.688-21.875-0.681V53.55 z"/> <path d="M91.532,140.519c0.418,0,0.845-0.066,1.255-0.203l21.038-7.013c0.051-0.017,0.092-0.05,0.142-0.069 c0.086-0.033,0.163-0.081,0.247-0.119c0.384-0.177,0.73-0.405,1.034-0.687c0.038-0.035,0.089-0.046,0.126-0.084l44.877-44.877 l8.414-8.416c1.549-1.549,1.549-4.059,0-5.609l-14.023-14.023c-1.549-1.549-4.059-1.549-5.609,0l-8.414,8.414l-44.88,44.878 c-0.038,0.038-0.052,0.093-0.089,0.133c-0.271,0.293-0.491,0.626-0.664,0.993c-0.043,0.091-0.092,0.172-0.128,0.266 c-0.021,0.055-0.057,0.101-0.076,0.157l-7.011,21.038c-0.476,1.426-0.105,2.998,0.957,4.059 C89.482,140.115,90.498,140.519,91.532,140.519z M151.837,67.832l8.414,8.414l-2.804,2.804l-8.414-8.414L151.837,67.832z M143.423,76.246l4.207,4.207l4.207,4.208L112.57,123.93l-4.209-4.208l-4.209-4.208L143.423,76.246z M100.278,122.857 l2.474,2.473l2.473,2.474l-7.422,2.476L100.278,122.857z"/> </g> </g> </g> </g>
</svg>